<svg width="26" height="36" viewBox="0 0 26 36" fill="none" xmlns="http://www.w3.org/2000/svg">
<path d="M12.8298 0.909856C12.3904 0.898178 11.9515 0.909564 11.516 0.945511C9.77421 1.0893 8.08331 1.62071 6.59415 2.59559C3.72551 4.47351 1.7174 8.01838 1.5803 13.269L1.53711 13.269C1.53711 13.269 1.536 17.6951 2.25735 22.8643C2.62098 25.4716 4.20976 28.2342 4.80677 29.6357C5.14192 30.4225 5.62433 30.9966 6.17203 31.4141C4.63332 33.6748 0.798755 33.783 0.798755 33.783C0.704237 33.7816 0.610396 33.7995 0.522685 33.8356C0.434975 33.8717 0.355144 33.9252 0.287832 33.9932C0.22052 34.0611 0.16707 34.1421 0.130587 34.2313C0.0941045 34.3206 0.0753169 34.4164 0.0753169 34.5132C0.0753169 34.61 0.0941045 34.7058 0.130587 34.795C0.16707 34.8843 0.22052 34.9653 0.287832 35.0332C0.355144 35.1011 0.434975 35.1547 0.522685 35.1908C0.610396 35.2269 0.704237 35.2448 0.798755 35.2434C0.798755 35.2434 4.96362 35.3307 7.10264 32.575C7.56269 33.2344 8.32455 34.3143 8.84683 34.9254C8.9072 35.0018 8.98202 35.065 9.06682 35.1111C9.15163 35.1573 9.24465 35.1854 9.34033 35.1938C9.43601 35.2023 9.53236 35.1909 9.62362 35.1603C9.71488 35.1297 9.79917 35.0805 9.87143 35.0158C9.94369 34.951 10.0024 34.872 10.0441 34.7834C10.0859 34.6949 10.1097 34.5986 10.1142 34.5004C10.1186 34.4022 10.1037 34.3041 10.0703 34.2119C10.0368 34.1198 9.98556 34.0355 9.91953 33.9641C9.65306 33.6524 9.13328 32.9419 8.67826 32.3069C10.0869 32.374 11.3451 31.9452 11.9883 31.6552C11.9935 31.6528 11.9986 31.6505 12.0036 31.648C12.0036 31.648 13.1899 31.0798 14.5753 30.3074C15.9608 29.5351 17.53 28.5977 18.4468 27.659C18.6393 27.462 18.8232 27.2567 18.9985 27.0472C18.9571 27.3901 18.9202 27.732 18.894 28.0698C18.7907 29.4041 18.8277 30.7071 19.0654 31.9005C18.4424 32.3325 17.0106 33.2622 15.577 33.7516C15.4881 33.7819 15.4058 33.8299 15.335 33.8928C15.2642 33.9556 15.2062 34.0322 15.1642 34.118C15.1223 34.2038 15.0973 34.2972 15.0907 34.393C15.084 34.4887 15.0958 34.5848 15.1255 34.6758C15.1551 34.7669 15.202 34.851 15.2634 34.9235C15.3248 34.996 15.3996 35.0554 15.4834 35.0983C15.5673 35.1412 15.6586 35.1668 15.7521 35.1736C15.8456 35.1804 15.9395 35.1682 16.0284 35.1379C17.4472 34.6535 18.7107 33.8821 19.4833 33.3651C19.8624 34.3001 20.4285 35.1183 21.2428 35.7554C21.3932 35.873 21.5831 35.9247 21.7707 35.899C21.9582 35.8733 22.1282 35.7724 22.2431 35.6185C22.358 35.4645 22.4085 35.2702 22.3834 35.0781C22.3583 34.8861 22.2597 34.7121 22.1094 34.5945C20.5285 33.3577 20.0956 31.0365 20.3164 28.1853C20.4217 26.8256 20.6814 25.3744 21.0032 23.9282C21.0757 23.7834 21.1641 23.6112 21.2066 23.5217C21.6364 23.5411 22.2145 23.505 22.8937 23.1623C24.0279 22.59 25.0753 21.1341 25.0753 18.3804C25.0753 16.4423 24.6327 15.2994 23.9636 14.6567C23.9035 14.5989 23.8405 14.552 23.7783 14.5041C24.7097 11.9397 24.6202 9.31998 23.5039 7.07375C22.313 4.67757 20.0001 2.73472 16.7417 1.62294C15.4731 1.19008 14.148 0.944893 12.8298 0.909856ZM12.8019 2.3731C13.9693 2.40406 15.1515 2.62057 16.2903 3.00917C19.2702 4.02591 21.2377 5.73496 22.232 7.73549C23.1628 9.60852 23.2301 11.7642 22.42 13.9892C22.2603 13.9848 22.1006 13.9546 21.9352 13.9778C21.5655 14.0298 21.1818 14.1918 20.8611 14.4613C20.5476 14.7247 20.2779 15.0688 19.9988 15.5195C19.7765 14.791 19.4989 14.0674 19.2507 13.289C18.767 11.7723 18.3739 10.026 18.6516 7.50873C18.6685 7.35451 18.637 7.19879 18.5616 7.06416C18.4862 6.92953 18.3708 6.82299 18.2323 6.75999C16.2511 5.85877 13.751 5.34187 11.4074 5.20262C9.0638 5.06336 6.9046 5.25953 5.47547 6.05546C5.46415 6.06181 5.453 6.06847 5.44203 6.07543C5.17026 6.24729 4.95816 6.50654 4.719 6.72576C5.44676 5.50965 6.32084 4.5078 7.36176 3.82637C8.63449 2.99318 10.1072 2.53016 11.6414 2.40448C12.025 2.37306 12.4128 2.36278 12.8019 2.3731ZM10.5144 6.63021C10.7807 6.63378 11.052 6.64393 11.3252 6.66016C13.3675 6.78151 15.5278 7.25605 17.2376 7.96082C17.0722 10.3687 17.4237 12.2642 17.8952 13.7425C18.4103 15.3578 18.9392 16.5436 18.9567 17.6844C18.9589 17.8483 19.0149 18.0067 19.1157 18.1341C19.2165 18.2615 19.3562 18.3505 19.5124 18.3867C19.6685 18.4229 19.8321 18.4043 19.9767 18.3338C20.1212 18.2633 20.2385 18.1451 20.3094 17.9982C21.0187 16.5373 21.4863 15.8252 21.7653 15.5908C21.9047 15.4736 21.9789 15.445 22.1289 15.424C22.1493 15.4211 22.1846 15.4242 22.2083 15.4225L22.2069 15.4596C22.4745 15.4656 22.7101 15.4547 22.9884 15.722C23.2667 15.9893 23.6488 16.6675 23.6488 18.3804C23.6488 20.7899 22.9129 21.5242 22.264 21.8517C21.9753 21.9974 21.6909 22.0455 21.4546 22.0613C21.6967 21.1177 21.9472 20.1878 22.1943 19.3131C22.2274 19.202 22.2341 19.0844 22.2139 18.97C22.1936 18.8557 22.147 18.748 22.078 18.6558C22.0089 18.5636 21.9194 18.4897 21.8167 18.44C21.7141 18.3904 21.6014 18.3665 21.488 18.3704C21.3357 18.3756 21.189 18.4306 21.0694 18.5273C20.9498 18.6241 20.8636 18.7575 20.8235 18.9081C20.429 20.3046 20.0033 21.8368 19.6477 23.4048C19.1457 24.3308 18.3354 25.708 17.4382 26.6265C16.788 27.2921 15.2361 28.2765 13.8927 29.0253C12.5553 29.7708 11.4204 30.3154 11.4102 30.3203C10.9423 30.5307 9.79154 30.9045 8.72005 30.8479C7.64655 30.7913 6.70266 30.4354 6.11352 29.0524C5.43519 27.46 3.96828 24.7978 3.66998 22.6589C3.3669 20.487 3.21012 18.5282 3.11134 16.9086C3.23242 16.8824 3.34476 16.8244 3.43733 16.7403C3.43733 16.7403 3.58845 16.5985 3.86502 16.4437C3.96319 16.5904 4.09478 16.7104 4.24843 16.7934C4.40207 16.8764 4.57314 16.9199 4.74687 16.92C4.98886 16.9198 5.22365 16.8357 5.41292 16.6813C5.60218 16.5269 5.73473 16.3114 5.78892 16.07C5.96946 16.0889 6.15524 16.115 6.35314 16.167C6.52439 16.2141 6.70667 16.1943 6.86441 16.1114C6.68967 16.8784 6.31109 17.8264 5.53119 18.891C5.47429 18.9685 5.44981 19.066 5.46314 19.162C5.47646 19.258 5.5265 19.3447 5.60224 19.403C5.67799 19.4612 5.77323 19.4863 5.86702 19.4726C5.96082 19.459 6.04547 19.4078 6.10237 19.3302C7.20938 17.8192 7.5925 16.4704 7.68775 15.4953C7.783 14.5202 7.58187 13.8837 7.58187 13.8837C7.55814 13.8076 7.51068 13.7415 7.44677 13.6957C7.38285 13.6498 7.30601 13.6267 7.22802 13.6298C7.1723 13.632 7.11786 13.6475 7.06906 13.6752C7.02026 13.7028 6.97847 13.7417 6.94704 13.7889C6.91562 13.836 6.89542 13.8901 6.88809 13.9467C6.88076 14.0033 6.88648 14.0608 6.90481 14.1147C6.90481 14.1147 6.99483 14.3913 6.99955 14.9034C6.91481 14.8305 6.81465 14.7787 6.70699 14.7522C6.08959 14.59 5.51712 14.5646 5.00599 14.6182C4.12602 14.7104 3.45915 15.0264 3.02357 15.287C3.00361 14.7846 2.98003 14.2839 2.97342 13.9707C2.99634 13.8559 3.02349 13.752 3.04726 13.6398C3.59008 13.3218 4.51164 12.9948 5.70394 13.4016C5.749 13.4198 5.79719 13.4284 5.84559 13.4269C5.89399 13.4253 5.94157 13.4137 5.98545 13.3928C6.02933 13.3718 6.06858 13.3419 6.1008 13.3049C6.13303 13.2679 6.15756 13.2246 6.1729 13.1776C6.18824 13.1306 6.19407 13.0808 6.19003 13.0314C6.18599 12.982 6.17217 12.934 6.14941 12.8903C6.12665 12.8465 6.09542 12.808 6.05764 12.777C6.01985 12.746 5.9763 12.7232 5.92963 12.71C5.34956 12.512 4.81322 12.4636 4.33589 12.5032C3.9217 12.5375 3.55785 12.6406 3.2409 12.7656C3.9175 10.0249 4.88493 8.16201 6.17482 7.33474C6.99822 6.88197 8.65005 6.60522 10.5144 6.63021ZM12.7044 12.4789C11.6163 12.4789 10.7359 12.6686 10.7359 12.6686C10.6433 12.6886 10.5624 12.7455 10.5108 12.8267C10.4592 12.9079 10.4412 13.0067 10.4608 13.1014C10.4803 13.1962 10.5359 13.2791 10.6152 13.3319C10.6945 13.3847 10.791 13.4032 10.8836 13.3831C10.8836 13.3831 11.6972 13.2091 12.7044 13.2091C13.7115 13.2091 14.8786 13.4038 15.5659 14.0292C15.6009 14.061 15.6417 14.0855 15.686 14.1012C15.7302 14.1168 15.7771 14.1235 15.8239 14.1206C15.8706 14.1178 15.9164 14.1055 15.9585 14.0846C16.0007 14.0636 16.0384 14.0344 16.0695 13.9985C16.1006 13.9626 16.1245 13.9208 16.1398 13.8755C16.1551 13.8302 16.1616 13.7822 16.1588 13.7344C16.156 13.6865 16.1441 13.6397 16.1236 13.5965C16.1031 13.5534 16.0746 13.5148 16.0395 13.4829C15.1219 12.6479 13.7925 12.4789 12.7044 12.4789ZM13.0624 14.5212C12.0765 14.5248 11.3391 14.7537 11.3391 14.7537C11.2485 14.7784 11.1636 14.8211 11.0892 14.8794C11.0147 14.9377 10.9522 15.0105 10.9052 15.0935C10.8583 15.1765 10.8277 15.2682 10.8154 15.3634C10.803 15.4585 10.8091 15.5552 10.8332 15.6479C10.8574 15.7406 10.8991 15.8276 10.9561 15.9038C11.0131 15.98 11.0842 16.0439 11.1653 16.092C11.2465 16.1401 11.336 16.1713 11.429 16.1839C11.5219 16.1966 11.6163 16.1903 11.7069 16.1656C11.7069 16.1656 11.9349 16.1196 12.2669 16.0814C12.3232 16.3203 12.4563 16.5328 12.6447 16.6849C12.8332 16.837 13.0662 16.9198 13.3062 16.92C13.5256 16.9198 13.7396 16.8507 13.9192 16.7218C14.0989 16.593 14.2355 16.4108 14.3107 16.1998C14.684 16.3069 15.04 16.473 15.329 16.736C15.3991 16.7997 15.4807 16.8487 15.5693 16.8801C15.6578 16.9114 15.7515 16.9247 15.8451 16.919C15.9386 16.9133 16.0301 16.8888 16.1144 16.8469C16.1987 16.805 16.2741 16.7465 16.3363 16.6748C16.3985 16.603 16.4463 16.5195 16.477 16.4288C16.5076 16.3382 16.5206 16.2422 16.515 16.1465C16.5094 16.0507 16.4855 15.957 16.4445 15.8707C16.4036 15.7844 16.3464 15.7073 16.2764 15.6436C15.2827 14.7394 14.0483 14.5176 13.0624 14.5212ZM9.02097 16.9143C8.97413 16.915 8.9279 16.9252 8.88491 16.9443C8.84192 16.9633 8.80301 16.9908 8.77041 17.0253C8.73781 17.0597 8.71216 17.1004 8.69491 17.1449C8.67767 17.1895 8.66917 17.2372 8.6699 17.2851L8.6699 18.7455C8.66923 18.7939 8.67796 18.8419 8.69559 18.8868C8.71321 18.9317 8.73937 18.9726 8.77256 19.007C8.80574 19.0415 8.84528 19.0688 8.88888 19.0875C8.93248 19.1062 8.97928 19.1158 9.02654 19.1158C9.0738 19.1158 9.1206 19.1062 9.1642 19.0875C9.2078 19.0688 9.24734 19.0415 9.28052 19.007C9.31371 18.9726 9.33987 18.9317 9.35749 18.8868C9.37512 18.8419 9.38385 18.7939 9.38318 18.7455L9.38318 17.2851C9.38393 17.2362 9.37507 17.1876 9.35713 17.1423C9.33919 17.097 9.31254 17.0558 9.27875 17.0212C9.24497 16.9866 9.20474 16.9593 9.16046 16.941C9.11618 16.9226 9.06874 16.9135 9.02097 16.9143ZM10.7457 19.4942C10.5545 19.5315 10.4299 19.7207 10.467 19.9164L10.4726 19.9449C10.5083 20.134 10.5274 20.3656 10.5074 20.5482C10.4924 20.7402 10.4151 20.8697 10.3737 20.8733C10.343 20.8865 10.2287 20.9044 10.0547 20.8562C9.87563 20.8117 9.72311 20.7346 9.48488 20.628C8.97203 20.3966 8.40557 20.2976 7.85492 20.31C7.29072 20.3304 6.79022 20.4129 6.21104 20.648C6.18037 20.6604 6.14694 20.6775 6.1177 20.6951C5.77532 20.8966 5.65753 21.3443 5.8544 21.6948C6.05126 22.0453 6.49 22.1659 6.83237 21.9644L6.84909 21.9544C7.13297 21.7872 7.56808 21.6362 7.94826 21.5793C8.3427 21.5172 8.73841 21.5325 9.11431 21.6435C9.32116 21.7033 9.61248 21.8089 9.90421 21.8374C10.1881 21.8688 10.5983 21.8688 10.9407 21.565C11.2702 21.2481 11.3044 20.855 11.3001 20.571C11.2894 20.268 11.2374 20.0156 11.1483 19.7367C11.0941 19.5665 10.9218 19.4592 10.7457 19.4942ZM12.9398 22.3922C12.878 22.3935 12.8175 22.4113 12.7644 22.4437C12.7113 22.4761 12.6674 22.5222 12.6369 22.5773C12.6064 22.6324 12.5904 22.6946 12.5905 22.7579C12.5906 22.8212 12.6068 22.8834 12.6375 22.9384C12.6375 22.9384 13.0647 23.7292 13.3188 24.6826C13.4458 25.1593 13.5266 25.6727 13.4971 26.1259C13.4676 26.5791 13.3371 26.9599 13.0541 27.2497C13.0198 27.2834 12.9925 27.3237 12.9737 27.3682C12.9549 27.4128 12.9449 27.4608 12.9444 27.5094C12.944 27.558 12.9529 27.6061 12.9709 27.6511C12.9888 27.6961 13.0153 27.7369 13.0489 27.7713C13.0824 27.8056 13.1223 27.8328 13.1663 27.8511C13.2102 27.8695 13.2573 27.8787 13.3047 27.8782C13.3522 27.8777 13.399 27.8675 13.4426 27.8483C13.4861 27.829 13.5255 27.801 13.5584 27.766C13.9886 27.3256 14.1702 26.748 14.2076 26.1744C14.2449 25.6008 14.1474 25.0188 14.007 24.4915C13.726 23.4369 13.2616 22.5847 13.2616 22.5847C13.2306 22.5254 13.184 22.476 13.1272 22.442C13.0705 22.408 13.0056 22.3908 12.9398 22.3922ZM7.8187 22.7074C7.60088 22.7151 7.37802 22.7424 7.15975 22.8001C6.72608 22.9074 6.31658 23.1102 5.97421 23.3877C5.29445 23.939 4.84985 24.7913 4.91404 25.6296C4.91832 25.6851 4.94365 25.7392 4.98788 25.7779C5.07632 25.8539 5.20696 25.8414 5.28043 25.7508L5.29158 25.7366C5.7438 25.1802 6.20736 24.7992 6.72092 24.5714C7.24161 24.3414 7.69994 24.248 8.30908 24.2947C8.90039 24.3349 9.48489 24.4832 10.0491 24.7454C10.6119 24.9973 11.1754 25.3682 11.6233 25.8136L11.6581 25.8478C11.7309 25.9194 11.8389 25.9505 11.9423 25.9191C12.095 25.8724 12.1816 25.7074 12.136 25.5512C11.8956 24.7253 11.3486 24.1095 10.708 23.6159C10.0582 23.1325 9.26588 22.8222 8.44561 22.7302C8.24838 22.7116 8.03652 22.6996 7.8187 22.7074ZM8.54173 26.4325C8.42543 26.4303 8.31133 26.4346 8.19902 26.4454C7.30059 26.5318 6.54731 27.0237 6.21104 27.709C6.19 27.7518 6.17742 27.7986 6.17401 27.8464C6.17061 27.8943 6.17644 27.9424 6.19119 27.9879C6.20594 28.0335 6.22931 28.0756 6.25996 28.1119C6.29062 28.1482 6.32796 28.178 6.36985 28.1996C6.41175 28.2211 6.45738 28.234 6.50413 28.2375C6.55089 28.2409 6.59786 28.235 6.64236 28.2199C6.68686 28.2048 6.72802 28.1808 6.76349 28.1495C6.79896 28.1181 6.82805 28.0799 6.84909 28.037C7.24646 27.2272 8.98338 26.529 10.559 28.1325C10.592 28.1673 10.6315 28.195 10.6752 28.214C10.7188 28.233 10.7658 28.2429 10.8132 28.2431C10.8606 28.2433 10.9076 28.2339 10.9514 28.2152C10.9952 28.1966 11.035 28.1693 11.0683 28.1347C11.1017 28.1002 11.1279 28.0592 11.1456 28.0142C11.1633 27.9691 11.1721 27.9209 11.1713 27.8724C11.1706 27.8238 11.1604 27.7759 11.1414 27.7315C11.1224 27.687 11.0949 27.6469 11.0605 27.6134C10.2557 26.7943 9.35587 26.4483 8.54173 26.4325Z" fill="#2C5FE2"/>
</svg>
