<svg width="32" height="38" viewBox="0 0 32 38" fill="none" xmlns="http://www.w3.org/2000/svg">
<path d="M6.04788 2.1266C5.6615 2.33619 5.28715 2.56547 4.928 2.81433C3.49141 3.80978 2.29276 5.11544 1.49054 6.70429C-0.0548047 9.76494 -0.0214521 13.8389 2.48514 18.4547L2.44773 18.4763C2.44773 18.4763 4.6598 22.3099 7.86911 26.4259C9.48768 28.5021 12.2449 30.1002 13.4627 31.0154C14.1463 31.5292 14.8511 31.7852 15.5343 31.8729C15.332 34.6001 12.0653 36.6111 12.0653 36.6111C11.9828 36.6571 11.9104 36.7195 11.8525 36.7947C11.7946 36.8698 11.7522 36.9561 11.7279 37.0486C11.7036 37.1411 11.6978 37.2379 11.7108 37.3334C11.7239 37.429 11.7555 37.5214 11.8039 37.6052C11.8523 37.689 11.9164 37.7625 11.9927 37.8216C12.0689 37.8807 12.1557 37.9241 12.2479 37.9493C12.3402 37.9744 12.4361 37.9809 12.5301 37.9683C12.6241 37.9557 12.7143 37.9243 12.7955 37.8758C12.7955 37.8758 16.446 35.869 16.9206 32.413C17.6487 32.754 18.8485 33.3083 19.6063 33.5764C19.6968 33.6124 19.7932 33.6297 19.8897 33.6272C19.9862 33.6248 20.0809 33.6026 20.1679 33.5621C20.255 33.5216 20.3327 33.4635 20.3965 33.3914C20.4602 33.3193 20.5086 33.2345 20.5388 33.1423C20.569 33.0501 20.5804 32.9523 20.5723 32.8548C20.5641 32.7572 20.5366 32.662 20.4914 32.5747C20.4462 32.4874 20.3842 32.4099 20.3091 32.3468C20.2341 32.2837 20.1476 32.2363 20.0547 32.2075C19.668 32.0708 18.8627 31.7154 18.1511 31.393C19.4046 30.7468 20.2798 29.7463 20.6918 29.1735C20.6951 29.169 20.6983 29.1643 20.7015 29.1597C20.7015 29.1597 21.4447 28.0744 22.2584 26.7128C23.0721 25.3513 23.9623 23.7548 24.287 22.4835C24.3552 22.2167 24.4118 21.9469 24.4589 21.6778C24.5945 21.9955 24.7334 22.31 24.8796 22.6156C25.4573 23.8229 26.1409 24.9328 26.9434 25.8474C26.6199 26.5331 25.8448 28.0541 24.8479 29.1948C24.7861 29.2655 24.7389 29.3482 24.709 29.438C24.679 29.5279 24.6671 29.6231 24.6737 29.7184C24.6803 29.8137 24.7053 29.9071 24.7474 29.9934C24.7895 30.0796 24.8478 30.1569 24.919 30.2209C24.9902 30.2849 25.0729 30.3344 25.1623 30.3665C25.2517 30.3985 25.3462 30.4126 25.4403 30.4078C25.5343 30.4031 25.6262 30.3796 25.7105 30.3387C25.7949 30.2978 25.8701 30.2404 25.932 30.1696C26.9185 29.0408 27.627 27.7409 28.0377 26.9069C28.8334 27.5271 29.7328 27.9526 30.7566 28.0972C30.9456 28.1239 31.1359 28.0737 31.2855 27.9576C31.4351 27.8416 31.5318 27.6692 31.5544 27.4785C31.5769 27.2877 31.5234 27.0941 31.4057 26.9404C31.288 26.7866 31.1156 26.6852 30.9266 26.6585C28.9392 26.3779 27.4036 24.5841 26.1692 22.0045C25.5806 20.7743 25.0799 19.3877 24.6355 17.9743C24.6258 17.8127 24.6163 17.6194 24.6084 17.5206C24.9902 17.3225 25.4729 17.0022 25.8897 16.3658C26.5859 15.3031 26.765 13.5185 25.3881 11.1338C24.4191 9.45532 23.4643 8.68681 22.5635 8.46477C22.4826 8.44483 22.4046 8.4357 22.3267 8.42526C21.8511 5.73873 20.4638 3.51474 18.3739 2.12763C16.1445 0.647921 13.17 0.121809 9.79222 0.7882C8.47723 1.04758 7.20703 1.49782 6.04788 2.1266ZM6.75538 3.40774C7.78182 2.85086 8.91389 2.44726 10.0944 2.2144C13.1835 1.60498 15.7419 2.10129 17.6032 3.33667C19.3459 4.49333 20.4821 6.32658 20.893 8.65854C20.7524 8.73462 20.599 8.78824 20.4674 8.89106C20.1732 9.12093 19.9219 9.45313 19.779 9.84681C19.6392 10.2317 19.5777 10.6645 19.5613 11.1944C19.0045 10.6747 18.4023 10.1868 17.7981 9.63678C16.6209 8.56513 15.4073 7.24936 14.3892 4.93046C14.3267 4.78845 14.2215 4.66937 14.0889 4.59048C13.9563 4.51158 13.8032 4.47698 13.6517 4.4917C11.4853 4.70184 9.06168 5.50423 6.96245 6.55543C4.86322 7.60662 3.09138 8.85611 2.25168 10.26C2.24505 10.2711 2.23872 10.2825 2.23271 10.294C2.08327 10.5787 2.02921 10.9093 1.93171 11.2187C1.9539 9.80163 2.20995 8.49697 2.7707 7.38637C3.45633 6.02844 4.50019 4.89112 5.76607 4.01514C6.08253 3.79615 6.41323 3.59336 6.75538 3.40774ZM6.90289 8.23825C7.13533 8.10818 7.37533 7.98133 7.62003 7.85879C9.44937 6.94275 11.5575 6.27355 13.3907 6.02899C14.4513 8.19699 15.7035 9.66274 16.851 10.7073C18.1047 11.8487 19.1557 12.6111 19.7413 13.5903C19.8251 13.7312 19.9528 13.8404 20.1038 13.9003C20.2548 13.9602 20.4202 13.9674 20.5736 13.9207C20.727 13.874 20.8593 13.7761 20.9493 13.6427C21.0392 13.5094 21.0816 13.3484 21.0696 13.1857C20.9535 11.5659 21.0023 10.7154 21.1267 10.3729C21.1889 10.2017 21.2388 10.1399 21.3582 10.0466C21.3745 10.0339 21.4065 10.019 21.4262 10.0057L21.4436 10.0385C21.6784 9.90985 21.877 9.78263 22.2516 9.87498C22.6263 9.96733 23.2962 10.3636 24.1527 11.847C25.3574 13.9337 25.0874 14.9376 24.6891 15.5456C24.5119 15.8162 24.2896 16 24.0929 16.1319C23.8308 15.1936 23.5828 14.2631 23.3595 13.382C23.3325 13.2692 23.2795 13.164 23.2049 13.0751C23.1302 12.9862 23.036 12.9162 22.9301 12.8709C22.8241 12.8256 22.7096 12.8064 22.5959 12.8147C22.4822 12.823 22.3727 12.8587 22.2764 12.9188C22.1471 12.9994 22.0475 13.1204 21.9923 13.264C21.9372 13.4076 21.9292 13.5662 21.9698 13.7166C22.3264 15.1233 22.7238 16.6631 23.1999 18.1988C23.2282 19.2517 23.215 20.8496 22.8972 22.0936C22.667 22.9952 21.8151 24.6236 21.0261 25.9438C20.2407 27.2581 19.5301 28.2972 19.5237 28.3066C19.2237 28.7227 18.414 29.6218 17.4578 30.1086C16.4998 30.5963 15.5044 30.76 14.3027 29.8569C12.9191 28.817 10.3176 27.2449 8.98979 25.5417C7.64135 23.8123 6.52622 22.1944 5.63085 20.8411C5.7226 20.7579 5.7909 20.6515 5.82902 20.5324C5.82902 20.5324 5.889 20.334 6.05109 20.0616C6.20946 20.1396 6.38345 20.1778 6.55801 20.1728C6.73256 20.1679 6.90244 20.12 7.05296 20.0332C7.26245 19.9121 7.42372 19.7218 7.51044 19.4935C7.59715 19.2652 7.60419 19.0123 7.53041 18.7761C7.69621 18.7022 7.87014 18.6319 8.06752 18.578C8.23941 18.5332 8.38735 18.4249 8.48249 18.2742C8.71467 19.0258 8.86083 20.0361 8.71769 21.348C8.70718 21.4436 8.73473 21.5403 8.79428 21.6168C8.85383 21.6932 8.94049 21.7433 9.03521 21.7559C9.12993 21.7684 9.22495 21.7425 9.29936 21.6838C9.37376 21.6251 9.42147 21.5384 9.43197 21.4428C9.63516 19.5807 9.29252 18.221 8.88747 17.3289C8.48241 16.4369 7.98999 15.9862 7.98999 15.9862C7.93138 15.9322 7.85725 15.8987 7.77897 15.8909C7.70069 15.8832 7.62258 15.9016 7.55661 15.9433C7.50945 15.973 7.47007 16.0137 7.44162 16.062C7.41318 16.1104 7.39646 16.165 7.39282 16.2215C7.38917 16.2781 7.39871 16.335 7.42065 16.3876C7.44259 16.4403 7.47633 16.4873 7.51916 16.5248C7.51916 16.5248 7.73543 16.7194 7.99554 17.1605C7.88568 17.1397 7.77305 17.1449 7.66659 17.1758C7.05079 17.344 6.54232 17.6083 6.12645 17.9102C5.41048 18.4301 4.99096 19.0372 4.74406 19.4807C4.47557 19.0556 4.2048 18.6338 4.04245 18.3658C4.00491 18.2549 3.9765 18.1514 3.94096 18.0423C4.25208 17.4955 4.88664 16.7515 6.12263 16.5077C6.17073 16.5009 6.21676 16.4842 6.25791 16.4587C6.29906 16.4332 6.33447 16.3994 6.36199 16.3593C6.3895 16.3192 6.40855 16.2737 6.41796 16.2255C6.42737 16.1774 6.42695 16.1276 6.41673 16.0792C6.40651 16.0308 6.38669 15.9848 6.3585 15.9441C6.3303 15.9033 6.29431 15.8686 6.25273 15.8421C6.21114 15.8156 6.16482 15.7978 6.1166 15.7899C6.06838 15.7819 6.01926 15.784 5.97224 15.7959C5.37091 15.9145 4.8822 16.1407 4.48863 16.4136C4.14711 16.6505 3.88352 16.9216 3.67154 17.1884C2.88715 14.4766 2.79353 12.3796 3.49697 11.0182C3.98367 10.2144 5.27583 9.14878 6.90289 8.23825ZM11.7238 12.2084C10.7815 12.7524 10.1139 13.3569 10.1139 13.3569C10.0438 13.4205 10.0021 13.5103 9.99798 13.6064C9.99388 13.7025 10.0277 13.7971 10.0921 13.8693C10.1564 13.9416 10.2459 13.9856 10.341 13.9917C10.4361 13.9978 10.5289 13.9655 10.5991 13.9018C10.5991 13.9018 11.2167 13.3443 12.0889 12.8408C12.9612 12.3372 14.0692 11.9222 14.9771 12.1202C15.0233 12.1303 15.0709 12.131 15.1171 12.1225C15.1633 12.1139 15.2072 12.0962 15.2462 12.0704C15.2853 12.0445 15.3188 12.0111 15.3448 11.9718C15.3708 11.9326 15.3889 11.8885 15.3979 11.8418C15.4069 11.7952 15.4067 11.7471 15.3973 11.7002C15.3879 11.6533 15.3695 11.6085 15.3432 11.5684C15.3168 11.5284 15.283 11.4938 15.2437 11.4667C15.2044 11.4395 15.1604 11.4204 15.1142 11.4103C13.9019 11.146 12.6662 11.6643 11.7238 12.2084ZM13.055 13.798C12.203 14.2941 11.6788 14.861 11.6788 14.861C11.6128 14.9277 11.5606 15.0072 11.5252 15.0949C11.4899 15.1826 11.4722 15.2769 11.473 15.3723C11.4738 15.4677 11.4933 15.5624 11.5301 15.6509C11.567 15.7395 11.6206 15.8202 11.6879 15.8884C11.7551 15.9566 11.8348 16.011 11.9222 16.0485C12.0097 16.086 12.1032 16.1059 12.1975 16.1069C12.2918 16.108 12.385 16.0903 12.4718 16.0547C12.5586 16.0192 12.6373 15.9666 12.7033 15.8999C12.7033 15.8999 12.8777 15.746 13.1462 15.547C13.3144 15.7257 13.5359 15.8432 13.7752 15.8807C14.0145 15.9182 14.2576 15.8734 14.4656 15.7536C14.6555 15.6437 14.8062 15.4768 14.8974 15.2754C14.9886 15.074 15.0158 14.8479 14.9753 14.6276C15.3522 14.5337 15.7436 14.4996 16.1254 14.5828C16.2179 14.603 16.3131 14.6045 16.4055 14.5874C16.4978 14.5704 16.5856 14.535 16.6638 14.4833C16.7419 14.4316 16.809 14.3646 16.861 14.2862C16.9131 14.2077 16.9491 14.1194 16.9671 14.0261C16.9851 13.9329 16.9847 13.8366 16.9659 13.7428C16.9472 13.649 16.9104 13.5594 16.8577 13.4793C16.805 13.3991 16.7374 13.33 16.6588 13.2757C16.5802 13.2215 16.4921 13.1832 16.3996 13.1631C15.087 12.8769 13.9071 13.302 13.055 13.798ZM10.7516 17.8912C10.7114 17.9153 10.6765 17.9472 10.6487 17.9852C10.621 18.0232 10.6011 18.0665 10.5901 18.1126C10.5791 18.1587 10.5772 18.2068 10.5845 18.254C10.5919 18.3013 10.6083 18.3467 10.633 18.3879L11.3632 19.6526C11.3868 19.6949 11.4183 19.7321 11.456 19.7622C11.4938 19.7922 11.5368 19.8146 11.5828 19.8278C11.6288 19.841 11.6767 19.845 11.7238 19.8393C11.7709 19.8337 11.8162 19.8186 11.8572 19.795C11.8981 19.7714 11.9338 19.7397 11.9622 19.7017C11.9907 19.6637 12.0112 19.6202 12.0227 19.5738C12.0342 19.5274 12.0365 19.4789 12.0293 19.4312C12.0221 19.3835 12.0056 19.3376 11.9809 19.296L11.2507 18.0313C11.2269 17.9885 11.1949 17.9509 11.1567 17.9206C11.1185 17.8903 11.0748 17.868 11.0283 17.8549C10.9817 17.8419 10.9333 17.8384 10.8857 17.8446C10.8382 17.8508 10.7926 17.8667 10.7516 17.8912ZM13.5352 19.2632C13.3882 19.391 13.375 19.6172 13.505 19.7681L13.524 19.79C13.6495 19.936 13.7819 20.127 13.8558 20.295C13.9389 20.4688 13.9366 20.6197 13.9026 20.6435C13.8826 20.6702 13.7926 20.7429 13.6178 20.7882C13.4404 20.8391 13.2698 20.8487 13.0102 20.8755C12.4503 20.9314 11.9103 21.129 11.4396 21.415C10.9612 21.7148 10.569 22.0365 10.185 22.5297C10.1646 22.5558 10.1442 22.5873 10.1277 22.6171C9.93193 22.9628 10.0538 23.4095 10.3995 23.6146C10.7452 23.8197 11.1855 23.7047 11.3812 23.359L11.3907 23.342C11.553 23.0553 11.8543 22.707 12.1551 22.4676C12.4657 22.2166 12.816 22.032 13.197 21.9402C13.4061 21.8886 13.7112 21.8344 13.9781 21.7132C14.2396 21.5984 14.5949 21.3933 14.7395 20.959C14.8664 20.5198 14.6995 20.1623 14.5537 19.9185C14.3929 19.6614 14.2218 19.4688 14.0051 19.2719C13.8731 19.1516 13.6702 19.1447 13.5352 19.2632ZM16.8844 20.6758C16.8315 20.7079 16.788 20.7535 16.7582 20.8081C16.7284 20.8628 16.7134 20.9246 16.7145 20.9876C16.7157 21.0505 16.733 21.1124 16.7647 21.1672C16.7965 21.222 16.8416 21.2678 16.8957 21.3C16.8957 21.3 17.661 21.7712 18.3577 22.4699C18.7061 22.8193 19.0328 23.2234 19.2338 23.6307C19.4349 24.038 19.5123 24.4329 19.4121 24.8254C19.3992 24.8717 19.3957 24.9203 19.4017 24.9683C19.4077 25.0163 19.4231 25.0628 19.447 25.1051C19.4708 25.1474 19.5027 25.1847 19.5407 25.2146C19.5787 25.2446 19.6221 25.2667 19.6684 25.2797C19.7146 25.2927 19.7627 25.2962 19.81 25.2902C19.8572 25.2841 19.9025 25.2686 19.9434 25.2444C19.9842 25.2203 20.0197 25.188 20.0478 25.1495C20.0759 25.1111 20.096 25.0672 20.1069 25.0204C20.2593 24.4239 20.1278 23.8329 19.8734 23.3174C19.6189 22.802 19.2435 22.3467 18.8582 21.9603C18.0876 21.1875 17.2593 20.6817 17.2593 20.6817C17.2027 20.6458 17.1378 20.6263 17.0716 20.6252C17.0054 20.6242 16.9406 20.6417 16.8844 20.6758ZM12.6069 23.5093C12.4222 23.625 12.2428 23.76 12.0826 23.9191C11.7607 24.2289 11.5075 24.6092 11.3497 25.0207C11.0367 25.838 11.0778 26.7985 11.5525 27.4924C11.584 27.5383 11.633 27.5725 11.6906 27.5839C11.8052 27.6055 11.9121 27.5293 11.9305 27.4142L11.933 27.3962C12.0464 26.6883 12.2574 26.1266 12.5882 25.6725C12.9242 25.213 13.2744 24.9029 13.8253 24.6388C14.3574 24.3779 14.9378 24.2142 15.5575 24.1591C16.1708 24.0959 16.8443 24.1353 17.4549 24.2971L17.5022 24.3093C17.601 24.3349 17.7101 24.3079 17.784 24.229C17.8928 24.1122 17.8854 23.926 17.7677 23.8135C17.1466 23.2185 16.3649 22.9586 15.5634 22.8514C14.759 22.7577 13.9176 22.8852 13.1613 23.2156C12.9812 23.2981 12.7917 23.3937 12.6069 23.5093ZM15.0957 26.3739C14.9938 26.4301 14.8972 26.4909 14.8053 26.5564C14.0705 27.0805 13.664 27.883 13.7154 28.6447C13.7187 28.6923 13.7311 28.7391 13.7521 28.7822C13.7731 28.8254 13.8022 28.8641 13.8377 28.8962C13.8733 28.9283 13.9146 28.9531 13.9593 28.9692C14.004 28.9853 14.0512 28.9924 14.0983 28.9901C14.1453 28.9878 14.1913 28.9762 14.2335 28.9558C14.2758 28.9354 14.3134 28.9068 14.3444 28.8715C14.3754 28.8361 14.3991 28.7948 14.4141 28.7499C14.4292 28.705 14.4352 28.6574 14.432 28.6097C14.3713 27.7097 15.5264 26.2366 17.6927 26.8375C17.7387 26.8511 17.7868 26.8554 17.8341 26.85C17.8814 26.8446 17.9269 26.8297 17.9681 26.8062C18.0093 26.7827 18.0452 26.751 18.0739 26.7129C18.1025 26.6749 18.1232 26.6313 18.1349 26.5848C18.1465 26.5382 18.1488 26.4896 18.1416 26.4417C18.1343 26.3939 18.1178 26.3477 18.0929 26.3061C18.068 26.2644 18.0352 26.228 17.9965 26.199C17.9578 26.17 17.9139 26.149 17.8674 26.1372C16.7609 25.8302 15.8086 25.9805 15.0957 26.3739Z" fill="#2C5FE2"/>
</svg>
